<?xml version="1.0" encoding="utf-8"?>
<!-- Generator: Adobe Illustrator 27.5.0, SVG Export Plug-In . SVG Version: 6.00 Build 0)  -->
<svg version="1.1" id="Layer_1" xmlns="http://www.w3.org/2000/svg" xmlns:xlink="http://www.w3.org/1999/xlink" x="0px" y="0px"
	 viewBox="0 0 800 800" style="enable-background:new 0 0 800 800;" xml:space="preserve">
<g>
	<linearGradient id="SVGID_1_" gradientUnits="userSpaceOnUse" x1="401.457" y1="166.6858" x2="401.457" y2="640.7429">
		<stop  offset="0" style="stop-color:#CFCFCF"/>
		<stop  offset="1" style="stop-color:#A6A6A6"/>
	</linearGradient>
	<path style="fill:url(#SVGID_1_);" d="M737.457,631.44c0,3.257-2.658,5.899-5.949,5.899H71.403c-3.284,0-5.946-2.642-5.946-5.899
		V173.196c0-3.258,2.662-5.899,5.946-5.899h660.104c3.291,0,5.949,2.642,5.949,5.899V631.44z"/>
	<path style="fill:#8A8A8A;" d="M75.6,627.264l-8.499,8.23c1.083,1.132,2.605,1.847,4.302,1.847h644.271l11.799-10.076H75.6z"/>
	<rect x="75.6" y="180.326" style="fill:#C9C9C9;" width="32.357" height="446.938"/>
	<rect x="695.115" y="180.326" style="fill:#C9C9C9;" width="32.358" height="446.938"/>
	
		<linearGradient id="SVGID_00000012448566913903229240000015462514711315511724_" gradientUnits="userSpaceOnUse" x1="402.4434" y1="402.3193" x2="717.1162" y2="402.3193">
		<stop  offset="0" style="stop-color:#A1A1A1"/>
		<stop  offset="0.0161" style="stop-color:#DADADA"/>
		<stop  offset="0.091" style="stop-color:#E4E4E4"/>
		<stop  offset="0.2213" style="stop-color:#F0F0F0"/>
		<stop  offset="0.3548" style="stop-color:#F4F4F4"/>
		<stop  offset="1" style="stop-color:#F0F0F0"/>
	</linearGradient>
	<path style="fill:url(#SVGID_00000012448566913903229240000015462514711315511724_);" d="M717.116,627.264
		c0,0-147.505,11.799-221.994,11.799c-74.489,0-92.679-5.9-92.679-5.9V171.477c0,0,22.614-5.901,93.415-5.901
		c70.804,0,221.258,14.75,221.258,14.75V627.264z"/>
	
		<linearGradient id="SVGID_00000084508449555523637950000003808842355650876316_" gradientUnits="userSpaceOnUse" x1="919.2226" y1="399.3701" x2="1233.8965" y2="399.3701" gradientTransform="matrix(-1 0 0 1 1321.666 0)">
		<stop  offset="0" style="stop-color:#B3B3B3"/>
		<stop  offset="0.0914" style="stop-color:#DADADA"/>
		<stop  offset="0.2043" style="stop-color:#DBDBDB"/>
		<stop  offset="0.2719" style="stop-color:#E4E4E4"/>
		<stop  offset="0.4004" style="stop-color:#F0F0F0"/>
		<stop  offset="0.5323" style="stop-color:#F4F4F4"/>
		<stop  offset="1" style="stop-color:#F0F0F0"/>
	</linearGradient>
	<path style="fill:url(#SVGID_00000084508449555523637950000003808842355650876316_);" d="M87.77,627.264
		c0,0,147.504,17.7,221.993,17.7c74.489,0,92.681-11.802,92.681-11.802V171.477c0,0-22.616-17.701-93.419-17.701
		c-70.801,0-221.255,26.55-221.255,26.55V627.264z"/>
	<g>
		<rect x="87.4" y="180.326" style="fill:#DBDBDB;" width="0.739" height="446.938"/>
	</g>
	<g>
		<rect x="86.494" y="180.326" style="fill:#DFE0E1;" width="0.737" height="446.938"/>
	</g>
	<g>
		<rect x="85.586" y="180.326" style="fill:#E0E1E2;" width="0.737" height="446.938"/>
	</g>
	<g>
		<rect x="84.678" y="180.326" style="fill:#E1E2E3;" width="0.737" height="446.938"/>
	</g>
	<g>
		<rect x="83.771" y="180.326" style="fill:#E3E3E4;" width="0.739" height="446.938"/>
	</g>
	<g>
		<rect x="80.821" y="180.326" style="fill:#BFBFBF;" width="0.737" height="446.938"/>
	</g>
	<g>
		<rect x="85.813" y="180.326" style="fill:#E4E4E5;" width="0.738" height="446.938"/>
	</g>
	<g>
		<rect x="81.956" y="180.326" style="fill:#E5E5E6;" width="0.737" height="446.938"/>
	</g>
	<g>
		<rect x="77.191" y="180.326" style="fill:#E7E8E8;" width="0.737" height="446.938"/>
	</g>
	<g>
		<rect x="79.23" y="180.326" style="fill:#E8E9E9;" width="0.739" height="446.938"/>
	</g>
	<g>
		<rect x="78.324" y="180.326" style="fill:#EAEAEA;" width="0.737" height="446.938"/>
	</g>
	<g>
		<rect x="77.419" y="180.326" style="fill:#EBEBEB;" width="0.737" height="446.938"/>
	</g>
	<g>
		<rect x="75.6" y="180.326" style="fill:#EDEDED;" width="0.738" height="446.938"/>
	</g>
	<g>
		<rect x="726.681" y="180.326" style="fill:#DBDBDB;" width="0.629" height="446.938"/>
	</g>
	<g>
		<rect x="725.905" y="180.326" style="fill:#DFE0E1;" width="0.63" height="446.938"/>
	</g>
	<g>
		<rect x="725.127" y="180.326" style="fill:#E0E1E2;" width="0.63" height="446.938"/>
	</g>
	<g>
		<rect x="723.574" y="180.326" style="fill:#E3E3E4;" width="0.63" height="446.938"/>
	</g>
	<g>
		<rect x="722.8" y="180.326" style="fill:#E4E4E5;" width="0.629" height="446.938"/>
	</g>
	<g>
		<rect x="721.244" y="180.326" style="fill:#E6E7E7;" width="0.629" height="446.938"/>
	</g>
	<g>
		<rect x="720.472" y="180.326" style="fill:#E7E8E8;" width="0.629" height="446.938"/>
	</g>
	<g>
		<rect x="719.693" y="180.326" style="fill:#CFCFCF;" width="0.63" height="446.938"/>
	</g>
	<g>
		<rect x="718.916" y="180.326" style="fill:#EAEAEA;" width="0.629" height="446.938"/>
	</g>
	<g>
		<rect x="718.141" y="180.326" style="fill:#EBEBEB;" width="0.63" height="446.938"/>
	</g>
	<g>
		<rect x="717.363" y="180.326" style="fill:#ECECEC;" width="0.629" height="446.938"/>
	</g>
	<g>
		<rect x="716.588" y="180.326" style="fill:#EDEDED;" width="0.629" height="446.938"/>
	</g>
	<path style="fill:#D5D5D5;" d="M386.245,638.573c4.183-0.96,7.408-1.899,9.833-2.719v-467.99c-2.46-1.176-5.707-2.539-9.833-3.95
		V638.573z"/>
</g>
</svg>
